<svg width="631" height="155" viewBox="0 0 631 155" fill="none" xmlns="http://www.w3.org/2000/svg">
<path d="M23.36 132.79H60.33C64.03 132.79 66.38 133.28 67.36 134.26C68.34 135.24 68.83 137.59 68.83 141.29V146.28C68.83 149.99 68.34 152.33 67.36 153.31C66.38 154.29 64.03 154.78 60.33 154.78H8.5C4.8 154.78 2.45 154.29 1.47 153.31C0.49 152.33 0 149.99 0 146.28V8.51C0 4.81 0.49 2.46 1.47 1.48C2.46 0.5 4.8 0 8.5 0H14.85C18.55 0 20.9 0.49 21.88 1.47C22.86 2.45 23.35 4.8 23.35 8.5V132.79H23.36Z" fill="black"/>
<path d="M119.06 22V59.08H170.77C174.47 59.08 176.82 59.57 177.8 60.55C178.78 61.53 179.27 63.88 179.27 67.58V72.57C179.27 76.2 178.78 78.54 177.8 79.6C176.82 80.58 174.47 81.07 170.77 81.07H119.06V132.78H172.58C176.28 132.78 178.63 133.27 179.61 134.25C180.67 135.23 181.2 137.58 181.2 141.28V146.27C181.2 149.98 180.67 152.32 179.61 153.3C178.63 154.28 176.28 154.77 172.58 154.77H104.2C100.5 154.77 98.15 154.28 97.17 153.3C96.19 152.32 95.7 149.97 95.7 146.27V8.51001C95.7 4.88001 96.19 2.54001 97.17 1.48001C98.23 0.50001 100.57 0.0100098 104.2 0.0100098H172.58C176.28 0.0100098 178.63 0.50001 179.61 1.48001C180.67 2.54001 181.2 4.88001 181.2 8.51001V13.5C181.2 17.13 180.67 19.47 179.61 20.53C178.63 21.51 176.28 22 172.58 22H119.06Z" fill="black"/>
<path d="M390.63 146.28V8.51001C390.63 4.88001 391.12 2.54001 392.1 1.48001C393.16 0.50001 395.5 0.0100098 399.13 0.0100098H423.17C439.73 0.0100098 452.77 1.79001 462.29 5.34001C479.22 11.62 492.04 22.58 500.73 38.22C507.08 49.71 510.26 62.75 510.26 77.34C510.26 104.18 499.94 125.04 479.3 139.93C471.44 145.6 463.46 149.49 455.37 151.61C447.28 153.73 436.39 154.78 422.71 154.78H399.12C395.41 154.78 393.07 154.29 392.09 153.31C391.12 152.33 390.63 149.99 390.63 146.28ZM413.99 132.79H424.53C433.9 132.79 441.75 131.94 448.06 130.24C454.37 128.54 460.21 125.69 465.58 121.68C472.46 116.54 477.75 110 481.46 102.06C484.94 94.58 486.68 86.37 486.68 77.45C486.68 64.75 483.24 53.52 476.36 43.77C470.92 36.14 464.09 30.6 455.89 27.16C447.69 23.72 437.24 22 424.54 22H414V132.79H413.99Z" fill="black"/>
<path d="M587.49 88.9L627.52 143.9C629.56 146.7 630.58 148.74 630.58 150.02C630.58 151.76 629.94 152.99 628.65 153.71C627.36 154.43 625.14 154.79 621.96 154.79H612.89C609.72 154.79 607.79 154.62 607.11 154.28C606.43 153.94 605.18 152.45 603.37 149.8L562.66 91.4H558.46V146.28C558.46 149.99 557.97 152.33 556.99 153.31C556.01 154.29 553.66 154.78 549.96 154.78H543.61C539.9 154.78 537.56 154.29 536.58 153.31C535.6 152.33 535.11 149.98 535.11 146.28V8.51001C535.11 4.88001 535.6 2.54001 536.58 1.48001C537.64 0.50001 539.98 0.0100098 543.61 0.0100098H562.43C572.41 0.0100098 580.5 0.69001 586.7 2.05001C592.9 3.41001 598.42 5.72001 603.26 8.97001C609 12.83 613.58 18.16 616.98 24.96C620.16 31.39 621.74 38.23 621.74 45.48C621.74 56.29 618.6 65.68 612.33 73.66C606.05 81.63 597.77 86.71 587.49 88.9ZM558.46 71.1H565.94C576.22 71.1 583.97 69.25 589.19 65.54C595.69 61 598.94 54.43 598.94 45.81C598.94 37.72 595.92 31.56 589.87 27.33C584.73 23.78 577.02 22 566.74 22H558.46V71.1Z" fill="black"/>
<path d="M368.24 154.98H307.67L256.53 0H315.53L368.24 154.98Z" fill="black"/>
<path fill-rule="evenodd" clip-rule="evenodd" d="M252.939 8.26498L203.04 154.98H263.61L282.481 97.7917L252.939 8.26498Z" fill="black"/>
</svg>
