<svg width="631" height="155" viewBox="0 0 631 155" fill="none" xmlns="http://www.w3.org/2000/svg">
<path d="M23.36 132.88H60.33C64.03 132.88 66.38 133.37 67.36 134.35C68.34 135.33 68.83 137.68 68.83 141.38V146.37C68.83 150.08 68.34 152.42 67.36 153.4C66.38 154.38 64.03 154.87 60.33 154.87H8.5C4.8 154.87 2.45 154.38 1.47 153.4C0.49 152.42 0 150.08 0 146.37V8.6C0 4.9 0.49 2.55 1.47 1.57C2.46 0.589996 4.8 0.0899963 8.5 0.0899963H14.85C18.55 0.0899963 20.9 0.579996 21.88 1.56C22.86 2.54 23.35 4.89 23.35 8.59V132.88H23.36Z" fill="black"/>
<path d="M119.36 21.99V59.07H171.07C174.77 59.07 177.12 59.56 178.1 60.54C179.08 61.52 179.57 63.87 179.57 67.57V72.56C179.57 76.19 179.08 78.53 178.1 79.59C177.12 80.57 174.77 81.06 171.07 81.06H119.36V132.77H172.88C176.58 132.77 178.93 133.26 179.91 134.24C180.97 135.22 181.5 137.57 181.5 141.27V146.26C181.5 149.97 180.97 152.31 179.91 153.29C178.93 154.27 176.58 154.76 172.88 154.76H104.5C100.8 154.76 98.45 154.27 97.47 153.29C96.49 152.31 96 149.96 96 146.26V8.5C96 4.87 96.49 2.53 97.47 1.47C98.53 0.49 100.87 0 104.5 0H172.88C176.58 0 178.93 0.49 179.91 1.47C180.97 2.53 181.5 4.87 181.5 8.5V13.49C181.5 17.12 180.97 19.46 179.91 20.52C178.93 21.5 176.58 21.99 172.88 21.99H119.36Z" fill="black"/>
<path d="M390.63 146.37V8.60001C390.63 4.97001 391.12 2.63001 392.1 1.57001C393.16 0.590006 395.5 0.100006 399.13 0.100006H423.17C439.73 0.100006 452.77 1.88001 462.29 5.43001C479.22 11.71 492.04 22.67 500.73 38.31C507.08 49.8 510.26 62.84 510.26 77.43C510.26 104.27 499.94 125.13 479.3 140.02C471.44 145.69 463.46 149.58 455.37 151.7C447.28 153.82 436.39 154.87 422.71 154.87H399.12C395.41 154.87 393.07 154.38 392.09 153.4C391.12 152.42 390.63 150.08 390.63 146.37ZM413.99 132.88H424.53C433.9 132.88 441.75 132.03 448.06 130.33C454.37 128.63 460.21 125.78 465.58 121.77C472.46 116.63 477.75 110.09 481.46 102.15C484.94 94.67 486.68 86.46 486.68 77.54C486.68 64.84 483.24 53.61 476.36 43.86C470.92 36.23 464.09 30.69 455.89 27.25C447.69 23.81 437.24 22.09 424.54 22.09H414V132.88H413.99Z" fill="black"/>
<path d="M587.49 88.99L627.52 143.99C629.56 146.79 630.58 148.83 630.58 150.11C630.58 151.85 629.94 153.08 628.65 153.8C627.36 154.52 625.14 154.88 621.96 154.88H612.89C609.72 154.88 607.79 154.71 607.11 154.37C606.43 154.03 605.18 152.54 603.37 149.89L562.66 91.49H558.46V146.37C558.46 150.08 557.97 152.42 556.99 153.4C556.01 154.38 553.66 154.87 549.96 154.87H543.61C539.9 154.87 537.56 154.38 536.58 153.4C535.6 152.42 535.11 150.07 535.11 146.37V8.60001C535.11 4.97001 535.6 2.63001 536.58 1.57001C537.64 0.590006 539.98 0.100006 543.61 0.100006H562.43C572.41 0.100006 580.5 0.780006 586.7 2.14001C592.9 3.50001 598.42 5.81001 603.26 9.06001C609 12.92 613.58 18.25 616.98 25.05C620.16 31.48 621.74 38.32 621.74 45.57C621.74 56.38 618.6 65.77 612.33 73.75C606.05 81.72 597.77 86.8 587.49 88.99ZM558.46 71.19H565.94C576.22 71.19 583.97 69.34 589.19 65.63C595.69 61.09 598.94 54.52 598.94 45.9C598.94 37.81 595.92 31.65 589.87 27.42C584.73 23.87 577.02 22.09 566.74 22.09H558.46V71.19Z" fill="black"/>
<path d="M204.04 154.98H264.61L315.75 0H256.75L204.04 154.98Z" fill="#0000FF"/>
<path d="M369.24 154.98H308.67L257.53 0H316.53L369.24 154.98Z" fill="#FB4C64"/>
</svg>
